<svg xmlns="http://www.w3.org/2000/svg" width="1200" height="600" viewBox="0 0 1200 600">
  <defs>
    <linearGradient id="sky" x1="0" y1="0" x2="0" y2="1">
      <stop offset="0" stop-color="#f7b267"/>
      <stop offset="0.55" stop-color="#f79d65"/>
      <stop offset="1" stop-color="#f4845f"/>
    </linearGradient>
    <linearGradient id="sand" x1="0" y1="0" x2="0" y2="1">
      <stop offset="0" stop-color="#d9a066"/>
      <stop offset="1" stop-color="#b5763f"/>
    </linearGradient>
  </defs>
  <rect width="1200" height="600" fill="url(#sky)"/>
  <circle cx="930" cy="170" r="70" fill="#ffe8a3" opacity="0.9"/>
  <path d="M0 400 Q200 340 420 390 T820 380 T1200 360 V600 H0Z" fill="#c98b52"/>
  <!-- Mud-brick mosque silhouette -->
  <g fill="#8a5a2b">
    <rect x="300" y="300" width="520" height="130"/>
    <path d="M360 300 L380 180 L400 300Z"/>
    <rect x="372" y="170" width="16" height="140"/>
    <path d="M520 300 L550 130 L580 300Z"/>
    <rect x="535" y="120" width="30" height="190"/>
    <path d="M700 300 L720 200 L740 300Z"/>
    <rect x="712" y="190" width="16" height="120"/>
  </g>
  <g fill="#6e4520">
    <rect x="330" y="340" width="30" height="60"/>
    <rect x="410" y="340" width="30" height="60"/>
    <rect x="490" y="340" width="30" height="60"/>
    <rect x="580" y="340" width="30" height="60"/>
    <rect x="660" y="340" width="30" height="60"/>
    <rect x="740" y="340" width="30" height="60"/>
  </g>
  <g stroke="#6e4520" stroke-width="4">
    <line x1="530" y1="160" x2="570" y2="160"/>
    <line x1="530" y1="200" x2="570" y2="200"/>
    <line x1="530" y1="240" x2="570" y2="240"/>
  </g>
  <path d="M0 450 Q300 400 600 450 T1200 440 V600 H0Z" fill="url(#sand)"/>
  <!-- Camel caravan -->
  <g fill="#4a2e14">
    <path d="M880 470 q10 -30 30 -20 q10 -20 30 0 l10 -15 l8 5 l-10 25 v30 h-6 v-25 h-40 v25 h-6 v-25z"/>
    <path d="M980 480 q10 -30 30 -20 q10 -20 30 0 l10 -15 l8 5 l-10 25 v30 h-6 v-25 h-40 v25 h-6 v-25z"/>
  </g>
</svg>
